<svg width="1280" height="720" viewBox="0 0 1280 720" fill="none" xmlns="http://www.w3.org/2000/svg">
<rect width="1280" height="720" fill="#121214"/>
<rect x="526" y="365" width="228" height="108" rx="54" fill="#42D3FF" fill-opacity="0.13"/>
<path fill-rule="evenodd" clip-rule="evenodd" d="M566 419C566 404.645 577.645 393 592 393C606.355 393 618 404.645 618 419C618 433.355 606.355 445 592 445C577.645 445 566 433.355 566 419ZM592 397C579.855 397 570 406.855 570 419C570 431.145 579.855 441 592 441C604.145 441 614 431.145 614 419C614 406.855 604.145 397 592 397Z" fill="#42D3FF"/>
<path d="M587.04 428.805L601.346 420.162C601.546 420.041 601.71 419.87 601.825 419.667C601.939 419.463 601.999 419.234 601.999 419C601.999 418.766 601.939 418.537 601.825 418.333C601.71 418.13 601.546 417.959 601.346 417.837L587.04 409.195C586.835 409.072 586.601 409.006 586.362 409.004C586.123 409.001 585.887 409.062 585.68 409.18C585.472 409.299 585.3 409.47 585.18 409.678C585.061 409.885 584.999 410.12 585 410.359V427.641C584.999 427.88 585.061 428.115 585.18 428.322C585.3 428.53 585.472 428.701 585.68 428.82C585.887 428.938 586.123 428.999 586.362 428.996C586.601 428.994 586.835 428.928 587.04 428.805Z" fill="#42D3FF"/>
<path fill-rule="evenodd" clip-rule="evenodd" d="M688 394C689.105 394 690 394.895 690 396V397.083C695.633 397.554 700.944 400.002 704.971 404.029C709.471 408.53 712 414.635 712 421C712 425.747 710.592 430.387 707.955 434.334C705.318 438.28 701.57 441.357 697.184 443.173C692.799 444.99 687.973 445.465 683.318 444.539C678.662 443.613 674.386 441.327 671.029 437.971C667.673 434.614 665.387 430.338 664.461 425.682C663.535 421.027 664.01 416.201 665.827 411.816C666.963 409.072 668.593 406.578 670.62 404.449L669.586 403.414C668.805 402.633 668.805 401.367 669.586 400.586C670.367 399.805 671.633 399.805 672.414 400.586L673.616 401.788C673.959 401.531 674.309 401.283 674.666 401.045C678.057 398.779 681.958 397.421 686 397.083V396C686 394.895 686.895 394 688 394ZM688 401C684.044 401 680.178 402.173 676.889 404.371C673.6 406.568 671.036 409.692 669.522 413.346C668.009 417.001 667.613 421.022 668.384 424.902C669.156 428.781 671.061 432.345 673.858 435.142C676.655 437.939 680.219 439.844 684.098 440.616C687.978 441.387 691.999 440.991 695.654 439.478C699.308 437.964 702.432 435.4 704.629 432.111C706.827 428.822 708 424.956 708 421C708 415.696 705.893 410.609 702.142 406.858C698.391 403.107 693.304 401 688 401ZM688 404C689.105 404 690 404.895 690 406V415.341C692.33 416.165 694 418.388 694 421C694 424.314 691.314 427 688 427C684.686 427 682 424.314 682 421C682 418.388 683.67 416.165 686 415.341V406C686 404.895 686.895 404 688 404ZM688 419C686.895 419 686 419.895 686 421C686 422.105 686.895 423 688 423C689.105 423 690 422.105 690 421C690 419.895 689.105 419 688 419Z" fill="white"/>
<path d="M574.113 318.332V328H531.316V319.75L551.555 298.051C553.589 295.788 555.193 293.797 556.367 292.078C557.542 290.331 558.387 288.77 558.902 287.395C559.447 285.991 559.719 284.659 559.719 283.398C559.719 281.508 559.404 279.889 558.773 278.543C558.143 277.168 557.212 276.108 555.98 275.363C554.777 274.618 553.288 274.246 551.512 274.246C549.621 274.246 547.988 274.704 546.613 275.621C545.267 276.538 544.236 277.812 543.52 279.445C542.832 281.078 542.488 282.926 542.488 284.988H530.07C530.07 281.264 530.958 277.855 532.734 274.762C534.51 271.639 537.017 269.161 540.254 267.328C543.491 265.466 547.329 264.535 551.77 264.535C556.152 264.535 559.848 265.251 562.855 266.684C565.892 268.087 568.184 270.121 569.73 272.785C571.306 275.421 572.094 278.572 572.094 282.238C572.094 284.301 571.764 286.32 571.105 288.297C570.447 290.245 569.501 292.193 568.27 294.141C567.066 296.06 565.605 298.008 563.887 299.984C562.168 301.961 560.263 304.009 558.172 306.129L547.301 318.332H574.113ZM593.492 299.512L583.609 297.148L587.176 265.438H622.324V275.449H597.359L595.812 289.328C596.643 288.841 597.904 288.326 599.594 287.781C601.284 287.208 603.174 286.922 605.266 286.922C608.302 286.922 610.995 287.395 613.344 288.34C615.693 289.285 617.684 290.66 619.316 292.465C620.978 294.27 622.238 296.475 623.098 299.082C623.957 301.689 624.387 304.639 624.387 307.934C624.387 310.712 623.957 313.362 623.098 315.883C622.238 318.375 620.935 320.609 619.188 322.586C617.44 324.534 615.249 326.066 612.613 327.184C609.978 328.301 606.855 328.859 603.246 328.859C600.553 328.859 597.947 328.458 595.426 327.656C592.934 326.854 590.685 325.665 588.68 324.09C586.703 322.514 585.113 320.609 583.91 318.375C582.736 316.112 582.12 313.534 582.062 310.641H594.352C594.523 312.417 594.982 313.949 595.727 315.238C596.5 316.499 597.517 317.473 598.777 318.16C600.038 318.848 601.513 319.191 603.203 319.191C604.779 319.191 606.125 318.891 607.242 318.289C608.359 317.688 609.262 316.857 609.949 315.797C610.637 314.708 611.138 313.448 611.453 312.016C611.797 310.555 611.969 308.979 611.969 307.289C611.969 305.599 611.768 304.066 611.367 302.691C610.966 301.316 610.35 300.128 609.52 299.125C608.689 298.122 607.629 297.349 606.34 296.805C605.079 296.26 603.604 295.988 601.914 295.988C599.622 295.988 597.846 296.346 596.586 297.062C595.354 297.779 594.323 298.595 593.492 299.512ZM633.367 322.027C633.367 320.194 633.997 318.661 635.258 317.43C636.547 316.198 638.251 315.582 640.371 315.582C642.491 315.582 644.181 316.198 645.441 317.43C646.73 318.661 647.375 320.194 647.375 322.027C647.375 323.861 646.73 325.393 645.441 326.625C644.181 327.857 642.491 328.473 640.371 328.473C638.251 328.473 636.547 327.857 635.258 326.625C633.997 325.393 633.367 323.861 633.367 322.027ZM633.367 286.578C633.367 284.745 633.997 283.212 635.258 281.98C636.547 280.749 638.251 280.133 640.371 280.133C642.491 280.133 644.181 280.749 645.441 281.98C646.73 283.212 647.375 284.745 647.375 286.578C647.375 288.411 646.73 289.944 645.441 291.176C644.181 292.408 642.491 293.023 640.371 293.023C638.251 293.023 636.547 292.408 635.258 291.176C633.997 289.944 633.367 288.411 633.367 286.578ZM699.324 291.219V302.047C699.324 306.745 698.823 310.798 697.82 314.207C696.818 317.587 695.371 320.366 693.48 322.543C691.618 324.691 689.398 326.281 686.82 327.312C684.242 328.344 681.378 328.859 678.227 328.859C675.706 328.859 673.357 328.544 671.18 327.914C669.003 327.255 667.04 326.238 665.293 324.863C663.574 323.488 662.085 321.755 660.824 319.664C659.592 317.544 658.647 315.023 657.988 312.102C657.329 309.18 657 305.828 657 302.047V291.219C657 286.521 657.501 282.496 658.504 279.145C659.535 275.764 660.982 273 662.844 270.852C664.734 268.703 666.969 267.128 669.547 266.125C672.125 265.094 674.99 264.578 678.141 264.578C680.661 264.578 682.996 264.908 685.145 265.566C687.322 266.197 689.284 267.185 691.031 268.531C692.779 269.878 694.268 271.611 695.5 273.73C696.732 275.822 697.677 278.328 698.336 281.25C698.995 284.143 699.324 287.466 699.324 291.219ZM686.906 303.68V289.543C686.906 287.28 686.777 285.303 686.52 283.613C686.29 281.923 685.932 280.491 685.445 279.316C684.958 278.113 684.357 277.139 683.641 276.395C682.924 275.65 682.108 275.105 681.191 274.762C680.275 274.418 679.258 274.246 678.141 274.246C676.737 274.246 675.491 274.518 674.402 275.062C673.342 275.607 672.44 276.48 671.695 277.684C670.951 278.858 670.378 280.434 669.977 282.41C669.604 284.358 669.418 286.736 669.418 289.543V303.68C669.418 305.943 669.533 307.934 669.762 309.652C670.02 311.371 670.392 312.846 670.879 314.078C671.395 315.281 671.996 316.27 672.684 317.043C673.4 317.788 674.216 318.332 675.133 318.676C676.078 319.02 677.109 319.191 678.227 319.191C679.602 319.191 680.819 318.919 681.879 318.375C682.967 317.802 683.884 316.914 684.629 315.711C685.402 314.479 685.975 312.875 686.348 310.898C686.72 308.922 686.906 306.516 686.906 303.68ZM749.855 291.219V302.047C749.855 306.745 749.354 310.798 748.352 314.207C747.349 317.587 745.902 320.366 744.012 322.543C742.15 324.691 739.93 326.281 737.352 327.312C734.773 328.344 731.909 328.859 728.758 328.859C726.237 328.859 723.888 328.544 721.711 327.914C719.534 327.255 717.572 326.238 715.824 324.863C714.105 323.488 712.616 321.755 711.355 319.664C710.124 317.544 709.178 315.023 708.52 312.102C707.861 309.18 707.531 305.828 707.531 302.047V291.219C707.531 286.521 708.033 282.496 709.035 279.145C710.066 275.764 711.513 273 713.375 270.852C715.266 268.703 717.5 267.128 720.078 266.125C722.656 265.094 725.521 264.578 728.672 264.578C731.193 264.578 733.527 264.908 735.676 265.566C737.853 266.197 739.815 267.185 741.562 268.531C743.31 269.878 744.799 271.611 746.031 273.73C747.263 275.822 748.208 278.328 748.867 281.25C749.526 284.143 749.855 287.466 749.855 291.219ZM737.438 303.68V289.543C737.438 287.28 737.309 285.303 737.051 283.613C736.822 281.923 736.464 280.491 735.977 279.316C735.49 278.113 734.888 277.139 734.172 276.395C733.456 275.65 732.639 275.105 731.723 274.762C730.806 274.418 729.789 274.246 728.672 274.246C727.268 274.246 726.022 274.518 724.934 275.062C723.874 275.607 722.971 276.48 722.227 277.684C721.482 278.858 720.909 280.434 720.508 282.41C720.135 284.358 719.949 286.736 719.949 289.543V303.68C719.949 305.943 720.064 307.934 720.293 309.652C720.551 311.371 720.923 312.846 721.41 314.078C721.926 315.281 722.527 316.27 723.215 317.043C723.931 317.788 724.747 318.332 725.664 318.676C726.609 319.02 727.641 319.191 728.758 319.191C730.133 319.191 731.35 318.919 732.41 318.375C733.499 317.802 734.415 316.914 735.16 315.711C735.934 314.479 736.507 312.875 736.879 310.898C737.251 308.922 737.438 306.516 737.438 303.68Z" fill="white"/>
<path fill-rule="evenodd" clip-rule="evenodd" d="M1208.75 636.01C1209.3 635.964 1209.86 636.072 1210.35 636.322C1210.85 636.572 1211.26 636.953 1211.55 637.425C1211.84 637.897 1212 638.44 1212 638.995L1212 638.998V672.998L1212 673.002C1212 673.556 1211.84 674.099 1211.55 674.571C1211.26 675.043 1210.85 675.425 1210.35 675.675C1209.86 675.924 1209.3 676.032 1208.75 675.986C1208.2 675.94 1207.67 675.741 1207.22 675.413C1207.19 675.393 1207.17 675.371 1207.14 675.349L1195.72 665.998C1195.72 665.998 1195.72 665.998 1195.71 665.998C1195.71 665.998 1195.71 665.998 1195.71 665.998H1187C1186.2 665.998 1185.44 665.682 1184.88 665.119C1184.32 664.557 1184 663.794 1184 662.998V648.998C1184 648.203 1184.32 647.439 1184.88 646.877C1185.44 646.314 1186.2 645.998 1187 645.998H1195.72L1207.14 636.647C1207.17 636.625 1207.19 636.604 1207.22 636.583C1207.67 636.255 1208.2 636.057 1208.75 636.01ZM1208 641.113L1198.25 649.095C1197.55 649.683 1196.66 650.003 1195.74 649.998H1188V661.998H1195.7C1196.62 661.993 1197.51 662.306 1198.23 662.885C1198.23 662.888 1198.24 662.891 1198.24 662.893L1208 670.883V641.113Z" fill="#42D3FF"/>
<path fill-rule="evenodd" clip-rule="evenodd" d="M1219.09 646.218C1220.07 645.716 1221.28 646.107 1221.78 647.091C1223.15 649.778 1224 652.699 1224 656C1224 659.269 1223.12 662.25 1221.79 664.897C1221.29 665.884 1220.09 666.283 1219.1 665.788C1218.12 665.292 1217.72 664.09 1218.21 663.103C1219.32 660.898 1220 658.529 1220 656C1220 653.424 1219.35 651.122 1218.22 648.909C1217.72 647.925 1218.11 646.72 1219.09 646.218Z" fill="#42D3FF"/>
<path fill-rule="evenodd" clip-rule="evenodd" d="M1224.99 640.272C1225.95 639.716 1227.17 640.038 1227.73 640.993C1230.35 645.491 1232 649.551 1232 656C1232 662.459 1230.28 666.555 1227.74 670.994C1227.19 671.953 1225.96 672.284 1225.01 671.735C1224.05 671.186 1223.72 669.964 1224.26 669.006C1226.59 664.945 1228 661.541 1228 656C1228 650.449 1226.65 647.084 1224.27 643.007C1223.72 642.053 1224.04 640.829 1224.99 640.272Z" fill="#42D3FF"/>
</svg>
